{
	"asset":{
		"generator":"Khronos glTF Blender I/O v5.0.21",
		"version":"2.0"
	},
	"scene":0,
	"scenes":[
		{
			"name":"Scene",
			"nodes":[
				0
			]
		}
	],
	"nodes":[
		{
			"mesh":0,
			"name":"SM_Buddha_RetopoFlow",
			"rotation":[
				0.7071068286895752,
				0,
				0,
				0.7071068286895752
			]
		}
	],
	"animations":[
		{
			"channels":[
				{
					"sampler":0,
					"target":{
						"node":0,
						"path":"translation"
					}
				},
				{
					"sampler":1,
					"target":{
						"node":0,
						"path":"rotation"
					}
				},
				{
					"sampler":2,
					"target":{
						"node":0,
						"path":"scale"
					}
				}
			],
			"name":"SM_Buddha_RetopoFlowAction.001",
			"samplers":[
				{
					"input":4,
					"interpolation":"STEP",
					"output":5
				},
				{
					"input":6,
					"interpolation":"LINEAR",
					"output":7
				},
				{
					"input":4,
					"interpolation":"STEP",
					"output":8
				}
			]
		}
	],
	"materials":[
		{
			"doubleSided":true,
			"name":"Buddha",
			"normalTexture":{
				"index":0,
				"scale":0
			},
			"pbrMetallicRoughness":{
				"baseColorTexture":{
					"index":1
				},
				"metallicRoughnessTexture":{
					"index":2
				}
			}
		}
	],
	"meshes":[
		{
			"name":"SM_Buddha_RetopoFlow.001",
			"primitives":[
				{
					"attributes":{
						"POSITION":0,
						"NORMAL":1,
						"TEXCOORD_0":2
					},
					"indices":3,
					"material":0
				}
			]
		}
	],
	"textures":[
		{
			"sampler":0,
			"source":0
		},
		{
			"sampler":0,
			"source":1
		},
		{
			"sampler":0,
			"source":2
		}
	],
	"images":[
		{
			"mimeType":"image/png",
			"name":"Buddha_low_DefaultMaterial_Normal",
			"uri":"Buddha_low_DefaultMaterial_Normal.png"
		},
		{
			"mimeType":"image/png",
			"name":"Buddha_low_DefaultMaterial_BaseColor",
			"uri":"Buddha_low_DefaultMaterial_BaseColor.png"
		},
		{
			"mimeType":"image/png",
			"name":"Buddha_low_DefaultMaterial_Roughness",
			"uri":"Buddha_low_DefaultMaterial_Roughness.png"
		}
	],
	"accessors":[
		{
			"bufferView":0,
			"componentType":5126,
			"count":4433,
			"max":[
				0.8601779937744141,
				0.6944739818572998,
				0.0015069999499246478
			],
			"min":[
				-0.8878139853477478,
				-0.5771129727363586,
				-3.044297933578491
			],
			"type":"VEC3"
		},
		{
			"bufferView":1,
			"componentType":5126,
			"count":4433,
			"type":"VEC3"
		},
		{
			"bufferView":2,
			"componentType":5126,
			"count":4433,
			"type":"VEC2"
		},
		{
			"bufferView":3,
			"componentType":5123,
			"count":20670,
			"type":"SCALAR"
		},
		{
			"bufferView":4,
			"componentType":5126,
			"count":2,
			"max":[
				7.5
			],
			"min":[
				0
			],
			"type":"SCALAR"
		},
		{
			"bufferView":5,
			"componentType":5126,
			"count":2,
			"type":"VEC3"
		},
		{
			"bufferView":6,
			"componentType":5126,
			"count":181,
			"max":[
				7.5
			],
			"min":[
				0
			],
			"type":"SCALAR"
		},
		{
			"bufferView":7,
			"componentType":5126,
			"count":181,
			"type":"VEC4"
		},
		{
			"bufferView":8,
			"componentType":5126,
			"count":2,
			"type":"VEC3"
		}
	],
	"bufferViews":[
		{
			"buffer":0,
			"byteLength":53196,
			"byteOffset":0,
			"target":34962
		},
		{
			"buffer":0,
			"byteLength":53196,
			"byteOffset":53196,
			"target":34962
		},
		{
			"buffer":0,
			"byteLength":35464,
			"byteOffset":106392,
			"target":34962
		},
		{
			"buffer":0,
			"byteLength":41340,
			"byteOffset":141856,
			"target":34963
		},
		{
			"buffer":0,
			"byteLength":8,
			"byteOffset":183196
		},
		{
			"buffer":0,
			"byteLength":24,
			"byteOffset":183204
		},
		{
			"buffer":0,
			"byteLength":724,
			"byteOffset":183228
		},
		{
			"buffer":0,
			"byteLength":2896,
			"byteOffset":183952
		},
		{
			"buffer":0,
			"byteLength":24,
			"byteOffset":186848
		}
	],
	"samplers":[
		{
			"magFilter":9729,
			"minFilter":9987
		}
	],
	"buffers":[
		{
			"byteLength":186872,
			"uri":"buda.bin"
		}
	]
}
