{
	"asset":{
		"generator":"Khronos glTF Blender I/O v5.0.21",
		"version":"2.0"
	},
	"extensionsUsed":[
		"KHR_materials_specular",
		"KHR_materials_ior"
	],
	"scene":0,
	"scenes":[
		{
			"name":"Scene",
			"nodes":[
				0
			]
		}
	],
	"nodes":[
		{
			"mesh":0,
			"name":"mesh",
			"rotation":[
				0.7071068286895752,
				0,
				0,
				0.7071068286895752
			],
			"translation":[
				0,
				0.37999990582466125,
				0
			]
		}
	],
	"animations":[
		{
			"channels":[
				{
					"sampler":0,
					"target":{
						"node":0,
						"path":"translation"
					}
				},
				{
					"sampler":1,
					"target":{
						"node":0,
						"path":"rotation"
					}
				},
				{
					"sampler":2,
					"target":{
						"node":0,
						"path":"scale"
					}
				}
			],
			"name":"meshAction",
			"samplers":[
				{
					"input":4,
					"interpolation":"STEP",
					"output":5
				},
				{
					"input":6,
					"interpolation":"LINEAR",
					"output":7
				},
				{
					"input":4,
					"interpolation":"STEP",
					"output":8
				}
			]
		}
	],
	"materials":[
		{
			"doubleSided":true,
			"extensions":{
				"KHR_materials_specular":{
					"specularFactor":0
				},
				"KHR_materials_ior":{
					"ior":1.4500000476837158
				}
			},
			"name":"base_material",
			"normalTexture":{
				"index":0
			},
			"pbrMetallicRoughness":{
				"baseColorTexture":{
					"index":1
				},
				"metallicFactor":0
			}
		}
	],
	"meshes":[
		{
			"name":"mesh",
			"primitives":[
				{
					"attributes":{
						"POSITION":0,
						"NORMAL":1,
						"TEXCOORD_0":2
					},
					"indices":3,
					"material":0
				}
			]
		}
	],
	"textures":[
		{
			"sampler":0,
			"source":0
		},
		{
			"sampler":0,
			"source":1
		}
	],
	"images":[
		{
			"mimeType":"image/jpeg",
			"name":"b3aae07149a6_model_normals",
			"uri":"b3aae07149a6_model_normals.jpg"
		},
		{
			"mimeType":"image/jpeg",
			"name":"b3aae07149a6_model_texture_kd",
			"uri":"b3aae07149a6_model_texture_kd.jpg"
		}
	],
	"accessors":[
		{
			"bufferView":0,
			"componentType":5126,
			"count":10759,
			"max":[
				0.3377859890460968,
				0.3898650109767914,
				0.49335500597953796
			],
			"min":[
				-0.3416979908943176,
				-0.38492199778556824,
				-0.5054500102996826
			],
			"type":"VEC3"
		},
		{
			"bufferView":1,
			"componentType":5126,
			"count":10759,
			"type":"VEC3"
		},
		{
			"bufferView":2,
			"componentType":5126,
			"count":10759,
			"type":"VEC2"
		},
		{
			"bufferView":3,
			"componentType":5123,
			"count":50604,
			"type":"SCALAR"
		},
		{
			"bufferView":4,
			"componentType":5126,
			"count":2,
			"max":[
				7.5
			],
			"min":[
				0
			],
			"type":"SCALAR"
		},
		{
			"bufferView":5,
			"componentType":5126,
			"count":2,
			"type":"VEC3"
		},
		{
			"bufferView":6,
			"componentType":5126,
			"count":181,
			"max":[
				7.5
			],
			"min":[
				0
			],
			"type":"SCALAR"
		},
		{
			"bufferView":7,
			"componentType":5126,
			"count":181,
			"type":"VEC4"
		},
		{
			"bufferView":8,
			"componentType":5126,
			"count":2,
			"type":"VEC3"
		}
	],
	"bufferViews":[
		{
			"buffer":0,
			"byteLength":129108,
			"byteOffset":0,
			"target":34962
		},
		{
			"buffer":0,
			"byteLength":129108,
			"byteOffset":129108,
			"target":34962
		},
		{
			"buffer":0,
			"byteLength":86072,
			"byteOffset":258216,
			"target":34962
		},
		{
			"buffer":0,
			"byteLength":101208,
			"byteOffset":344288,
			"target":34963
		},
		{
			"buffer":0,
			"byteLength":8,
			"byteOffset":445496
		},
		{
			"buffer":0,
			"byteLength":24,
			"byteOffset":445504
		},
		{
			"buffer":0,
			"byteLength":724,
			"byteOffset":445528
		},
		{
			"buffer":0,
			"byteLength":2896,
			"byteOffset":446252
		},
		{
			"buffer":0,
			"byteLength":24,
			"byteOffset":449148
		}
	],
	"samplers":[
		{
			"magFilter":9729,
			"minFilter":9987
		}
	],
	"buffers":[
		{
			"byteLength":449172,
			"uri":"organ.bin"
		}
	]
}
